# MagicaVoxel @ Ephtracy

# group
o 

# material
mtllib sandstone26_5x5x5.mtl
usemtl palette

# normals
vn -1 0 0
vn 1 0 0
vn 0 0 1
vn 0 0 -1
vn 0 -1 0
vn 0 1 0

# texcoords
vt 0.00195313 0.5
vt 0.00585938 0.5
vt 0.0253906 0.5
vt 0.0449219 0.5
vt 0.0605469 0.5
vt 0.0683594 0.5
vt 0.0800781 0.5
vt 0.0878906 0.5
vt 0.0996094 0.5
vt 0.119141 0.5
vt 0.126953 0.5
vt 0.142578 0.5
vt 0.146484 0.5
vt 0.169922 0.5
vt 0.173828 0.5
vt 0.189453 0.5
vt 0.212891 0.5
vt 0.216797 0.5
vt 0.232422 0.5
vt 0.240234 0.5
vt 0.255859 0.5
vt 0.294922 0.5
vt 0.306641 0.5
vt 0.314453 0.5
vt 0.322266 0.5
vt 0.330078 0.5
vt 0.333984 0.5
vt 0.341797 0.5
vt 0.345703 0.5
vt 0.349609 0.5
vt 0.369141 0.5
vt 0.404297 0.5
vt 0.427734 0.5
vt 0.431641 0.5
vt 0.443359 0.5
vt 0.451172 0.5
vt 0.462891 0.5
vt 0.474609 0.5
vt 0.486328 0.5
vt 0.521484 0.5
vt 0.529297 0.5
vt 0.556641 0.5
vt 0.560547 0.5
vt 0.576172 0.5
vt 0.583984 0.5
vt 0.587891 0.5
vt 0.591797 0.5
vt 0.603516 0.5
vt 0.607422 0.5
vt 0.626953 0.5
vt 0.630859 0.5
vt 0.634766 0.5
vt 0.650391 0.5
vt 0.654297 0.5
vt 0.666016 0.5
vt 0.673828 0.5
vt 0.677734 0.5
vt 0.693359 0.5
vt 0.705078 0.5
vt 0.712891 0.5

# verts
v -0.2 -0.2 0.2
v -0.2 -0.2 0.1
v -0.2 -0.2 0
v -0.2 -0.2 -0.1
v -0.2 -0.2 -0.2
v -0.2 -0.2 -0.3
v -0.2 -0.1 0.2
v -0.2 -0.1 0.1
v -0.2 -0.1 0
v -0.2 -0.1 -0.1
v -0.2 -0.1 -0.2
v -0.2 -0.1 -0.3
v -0.2 0 0.2
v -0.2 0 0.1
v -0.2 0 0
v -0.2 0 -0.1
v -0.2 0 -0.2
v -0.2 0 -0.3
v -0.2 0.1 0.2
v -0.2 0.1 0.1
v -0.2 0.1 0
v -0.2 0.1 -0.1
v -0.2 0.1 -0.2
v -0.2 0.1 -0.3
v -0.2 0.2 0.2
v -0.2 0.2 0.1
v -0.2 0.2 0
v -0.2 0.2 -0.1
v -0.2 0.2 -0.2
v -0.2 0.2 -0.3
v -0.2 0.3 0.1
v -0.2 0.3 0
v -0.2 0.3 -0.1
v -0.2 0.3 -0.2
v -0.2 0.3 -0.3
v -0.1 0.2 0.2
v -0.1 0.2 0.1
v -0.1 0.3 0.2
v -0.1 0.3 0.1
v 0.1 0.1 -0.1
v 0.1 0.1 -0.2
v 0.1 0.2 -0.1
v 0.1 0.2 -0.2
v 0.2 -0.1 0.1
v 0.2 -0.1 0
v 0.2 -0.1 -0.1
v 0.2 -0.1 -0.2
v 0.2 0 0.1
v 0.2 0 0
v 0.2 0 -0.1
v 0.2 0 -0.2
v 0.2 0.1 0.1
v 0.2 0.1 0
v 0.2 0.1 -0.1
v 0.2 0.1 -0.2
v 0.2 0.2 0.1
v 0.2 0.2 0
v 0.2 0.2 -0.1
v -0.1 -0.1 0.1
v -0.1 -0.1 0
v -0.1 -0.1 -0.1
v -0.1 -0.1 -0.2
v -0.1 0 0.1
v -0.1 0 0
v -0.1 0 -0.1
v -0.1 0 -0.2
v -0.1 0.1 0.1
v -0.1 0.1 0
v -0.1 0.1 -0.1
v -0.1 0.1 -0.2
v -0.1 0.2 0.1
v -0.1 0.2 0
v -0.1 0.2 -0.1
v -0.1 0.2 -0.2
v 0.1 0.2 -0.2
v 0.1 0.2 -0.3
v 0.1 0.3 -0.2
v 0.1 0.3 -0.3
v 0.2 -0.2 0.2
v 0.2 -0.2 0.1
v 0.2 -0.1 0.2
v 0.2 -0.1 0.1
v 0.2 0.1 0.2
v 0.2 0.1 0.1
v 0.2 0.1 -0.1
v 0.2 0.1 -0.2
v 0.2 0.1 -0.3
v 0.2 0.2 0.2
v 0.2 0.2 0.1
v 0.2 0.2 0
v 0.2 0.2 -0.1
v 0.2 0.2 -0.2
v 0.2 0.2 -0.3
v 0.2 0.3 0.2
v 0.2 0.3 0.1
v 0.2 0.3 0
v 0.2 0.3 -0.1
v 0.2 0.3 -0.2
v 0.3 -0.2 0.1
v 0.3 -0.2 0
v 0.3 -0.2 -0.1
v 0.3 -0.2 -0.2
v 0.3 -0.2 -0.3
v 0.3 -0.1 0.2
v 0.3 -0.1 0.1
v 0.3 -0.1 0
v 0.3 -0.1 -0.1
v 0.3 -0.1 -0.2
v 0.3 -0.1 -0.3
v 0.3 0 0.2
v 0.3 0 0.1
v 0.3 0 0
v 0.3 0 -0.1
v 0.3 0 -0.2
v 0.3 0 -0.3
v 0.3 0.1 0.2
v 0.3 0.1 0.1
v 0.3 0.1 0
v 0.3 0.1 -0.1
v 0.3 0.1 -0.2
v 0.3 0.1 -0.3
v 0.3 0.2 0.1
v 0.3 0.2 0
v 0.3 0.2 -0.1
v -0.2 -0.2 0.2
v -0.2 -0.1 0.2
v -0.2 0 0.2
v -0.2 0.1 0.2
v -0.2 0.2 0.2
v -0.1 -0.2 0.2
v -0.1 -0.1 0.2
v -0.1 0 0.2
v -0.1 0.1 0.2
v -0.1 0.2 0.2
v -0.1 0.3 0.2
v 0 -0.2 0.2
v 0 -0.1 0.2
v 0 0 0.2
v 0 0.1 0.2
v 0 0.2 0.2
v 0 0.3 0.2
v 0.1 -0.2 0.2
v 0.1 -0.1 0.2
v 0.1 0 0.2
v 0.1 0.1 0.2
v 0.1 0.2 0.2
v 0.1 0.3 0.2
v 0.2 -0.2 0.2
v 0.2 -0.1 0.2
v 0.2 0 0.2
v 0.2 0.1 0.2
v 0.2 0.2 0.2
v 0.2 0.3 0.2
v 0.3 -0.1 0.2
v 0.3 0 0.2
v 0.3 0.1 0.2
v -0.2 0.2 0.1
v -0.2 0.3 0.1
v -0.1 0.2 0.1
v -0.1 0.3 0.1
v 0.2 -0.2 0.1
v 0.2 -0.1 0.1
v 0.2 0.1 0.1
v 0.2 0.2 0.1
v 0.3 -0.2 0.1
v 0.3 -0.1 0.1
v 0.3 0.1 0.1
v 0.3 0.2 0.1
v 0.1 0.1 -0.1
v 0.1 0.2 -0.1
v 0.2 0.1 -0.1
v 0.2 0.2 -0.1
v -0.1 -0.1 -0.2
v -0.1 0 -0.2
v -0.1 0.1 -0.2
v -0.1 0.2 -0.2
v 0 -0.1 -0.2
v 0 0 -0.2
v 0 0.1 -0.2
v 0 0.2 -0.2
v 0.1 -0.1 -0.2
v 0.1 0 -0.2
v 0.1 0.1 -0.2
v 0.1 0.2 -0.2
v 0.2 -0.1 -0.2
v 0.2 0 -0.2
v 0.2 0.1 -0.2
v -0.1 -0.1 0.1
v -0.1 0 0.1
v -0.1 0.1 0.1
v -0.1 0.2 0.1
v 0 -0.1 0.1
v 0 0 0.1
v 0 0.1 0.1
v 0 0.2 0.1
v 0.1 -0.1 0.1
v 0.1 0 0.1
v 0.1 0.1 0.1
v 0.1 0.2 0.1
v 0.2 -0.1 0.1
v 0.2 0 0.1
v 0.2 0.1 0.1
v 0.2 0.2 0.1
v 0.2 0.1 -0.1
v 0.2 0.2 -0.1
v 0.3 0.1 -0.1
v 0.3 0.2 -0.1
v 0.1 0.2 -0.2
v 0.1 0.3 -0.2
v 0.2 0.2 -0.2
v 0.2 0.3 -0.2
v -0.2 -0.2 -0.3
v -0.2 -0.1 -0.3
v -0.2 0 -0.3
v -0.2 0.1 -0.3
v -0.2 0.2 -0.3
v -0.2 0.3 -0.3
v -0.1 -0.2 -0.3
v -0.1 -0.1 -0.3
v -0.1 0 -0.3
v -0.1 0.1 -0.3
v -0.1 0.2 -0.3
v -0.1 0.3 -0.3
v 0 -0.2 -0.3
v 0 -0.1 -0.3
v 0 0 -0.3
v 0 0.1 -0.3
v 0 0.2 -0.3
v 0 0.3 -0.3
v 0.1 -0.2 -0.3
v 0.1 -0.1 -0.3
v 0.1 0 -0.3
v 0.1 0.1 -0.3
v 0.1 0.2 -0.3
v 0.1 0.3 -0.3
v 0.2 -0.2 -0.3
v 0.2 -0.1 -0.3
v 0.2 0 -0.3
v 0.2 0.1 -0.3
v 0.2 0.2 -0.3
v 0.3 -0.2 -0.3
v 0.3 -0.1 -0.3
v 0.3 0 -0.3
v 0.3 0.1 -0.3
v -0.2 -0.2 0.2
v -0.1 -0.2 0.2
v 0 -0.2 0.2
v 0.1 -0.2 0.2
v 0.2 -0.2 0.2
v -0.2 -0.2 0.1
v -0.1 -0.2 0.1
v 0 -0.2 0.1
v 0.1 -0.2 0.1
v 0.2 -0.2 0.1
v 0.3 -0.2 0.1
v -0.2 -0.2 0
v -0.1 -0.2 0
v 0 -0.2 0
v 0.1 -0.2 0
v 0.2 -0.2 0
v 0.3 -0.2 0
v -0.2 -0.2 -0.1
v -0.1 -0.2 -0.1
v 0 -0.2 -0.1
v 0.1 -0.2 -0.1
v 0.2 -0.2 -0.1
v 0.3 -0.2 -0.1
v -0.2 -0.2 -0.2
v -0.1 -0.2 -0.2
v 0 -0.2 -0.2
v 0.1 -0.2 -0.2
v 0.2 -0.2 -0.2
v 0.3 -0.2 -0.2
v -0.2 -0.2 -0.3
v -0.1 -0.2 -0.3
v 0 -0.2 -0.3
v 0.1 -0.2 -0.3
v 0.2 -0.2 -0.3
v 0.3 -0.2 -0.3
v 0.2 -0.1 0.2
v 0.3 -0.1 0.2
v 0.2 -0.1 0.1
v 0.3 -0.1 0.1
v 0.1 0.1 -0.1
v 0.2 0.1 -0.1
v 0.1 0.1 -0.2
v 0.2 0.1 -0.2
v -0.1 0.2 0.1
v 0 0.2 0.1
v 0.1 0.2 0.1
v 0.2 0.2 0.1
v -0.1 0.2 0
v 0 0.2 0
v 0.1 0.2 0
v 0.2 0.2 0
v -0.1 0.2 -0.1
v 0 0.2 -0.1
v 0.1 0.2 -0.1
v 0.2 0.2 -0.1
v -0.1 0.2 -0.2
v 0 0.2 -0.2
v 0.1 0.2 -0.2
v -0.1 -0.1 0.1
v 0 -0.1 0.1
v 0.1 -0.1 0.1
v 0.2 -0.1 0.1
v -0.1 -0.1 0
v 0 -0.1 0
v 0.1 -0.1 0
v 0.2 -0.1 0
v -0.1 -0.1 -0.1
v 0 -0.1 -0.1
v 0.1 -0.1 -0.1
v 0.2 -0.1 -0.1
v -0.1 -0.1 -0.2
v 0 -0.1 -0.2
v 0.1 -0.1 -0.2
v 0.2 -0.1 -0.2
v 0.2 0.1 0.2
v 0.3 0.1 0.2
v 0.2 0.1 0.1
v 0.3 0.1 0.1
v 0.2 0.1 -0.1
v 0.3 0.1 -0.1
v 0.2 0.1 -0.2
v 0.3 0.1 -0.2
v 0.2 0.1 -0.3
v 0.3 0.1 -0.3
v -0.2 0.2 0.2
v -0.1 0.2 0.2
v -0.2 0.2 0.1
v -0.1 0.2 0.1
v 0.2 0.2 0.1
v 0.3 0.2 0.1
v 0.2 0.2 0
v 0.3 0.2 0
v 0.2 0.2 -0.1
v 0.3 0.2 -0.1
v 0.1 0.2 -0.2
v 0.2 0.2 -0.2
v 0.1 0.2 -0.3
v 0.2 0.2 -0.3
v -0.1 0.3 0.2
v 0 0.3 0.2
v 0.1 0.3 0.2
v 0.2 0.3 0.2
v -0.2 0.3 0.1
v -0.1 0.3 0.1
v 0 0.3 0.1
v 0.1 0.3 0.1
v 0.2 0.3 0.1
v -0.2 0.3 0
v -0.1 0.3 0
v 0 0.3 0
v 0.1 0.3 0
v 0.2 0.3 0
v -0.2 0.3 -0.1
v -0.1 0.3 -0.1
v 0 0.3 -0.1
v 0.1 0.3 -0.1
v 0.2 0.3 -0.1
v -0.2 0.3 -0.2
v -0.1 0.3 -0.2
v 0 0.3 -0.2
v 0.1 0.3 -0.2
v 0.2 0.3 -0.2
v -0.2 0.3 -0.3
v -0.1 0.3 -0.3
v 0 0.3 -0.3
v 0.1 0.3 -0.3

# faces
f 7/8/1 2/8/1 1/8/1
f 8/11/1 3/11/1 2/11/1
f 8/8/1 2/8/1 7/8/1
f 9/1/1 4/1/1 3/1/1
f 9/11/1 3/11/1 8/11/1
f 10/10/1 5/10/1 4/10/1
f 10/1/1 4/1/1 9/1/1
f 11/9/1 6/9/1 5/9/1
f 11/10/1 5/10/1 10/10/1
f 12/9/1 6/9/1 11/9/1
f 13/25/1 8/25/1 7/25/1
f 14/20/1 9/20/1 8/20/1
f 14/25/1 8/25/1 13/25/1
f 15/5/1 10/5/1 9/5/1
f 15/20/1 9/20/1 14/20/1
f 16/9/1 11/9/1 10/9/1
f 16/5/1 10/5/1 15/5/1
f 17/13/1 12/13/1 11/13/1
f 17/9/1 11/9/1 16/9/1
f 18/13/1 12/13/1 17/13/1
f 19/27/1 14/27/1 13/27/1
f 20/17/1 15/17/1 14/17/1
f 20/27/1 14/27/1 19/27/1
f 21/3/1 16/3/1 15/3/1
f 21/17/1 15/17/1 20/17/1
f 22/18/1 17/18/1 16/18/1
f 22/3/1 16/3/1 21/3/1
f 23/22/1 18/22/1 17/22/1
f 23/18/1 17/18/1 22/18/1
f 24/22/1 18/22/1 23/22/1
f 25/46/1 20/46/1 19/46/1
f 26/27/1 21/27/1 20/27/1
f 26/46/1 20/46/1 25/46/1
f 27/22/1 22/22/1 21/22/1
f 27/27/1 21/27/1 26/27/1
f 28/15/1 23/15/1 22/15/1
f 28/22/1 22/22/1 27/22/1
f 29/14/1 24/14/1 23/14/1
f 29/15/1 23/15/1 28/15/1
f 30/14/1 24/14/1 29/14/1
f 31/40/1 27/40/1 26/40/1
f 32/32/1 28/32/1 27/32/1
f 32/40/1 27/40/1 31/40/1
f 33/20/1 29/20/1 28/20/1
f 33/32/1 28/32/1 32/32/1
f 34/16/1 30/16/1 29/16/1
f 34/20/1 29/20/1 33/20/1
f 35/16/1 30/16/1 34/16/1
f 38/60/1 37/60/1 36/60/1
f 39/60/1 37/60/1 38/60/1
f 42/51/1 41/51/1 40/51/1
f 43/51/1 41/51/1 42/51/1
f 48/44/1 45/44/1 44/44/1
f 49/37/1 46/37/1 45/37/1
f 49/44/1 45/44/1 48/44/1
f 50/52/1 47/52/1 46/52/1
f 50/37/1 46/37/1 49/37/1
f 51/52/1 47/52/1 50/52/1
f 52/45/1 49/45/1 48/45/1
f 53/23/1 50/23/1 49/23/1
f 53/45/1 49/45/1 52/45/1
f 54/53/1 51/53/1 50/53/1
f 54/23/1 50/23/1 53/23/1
f 55/53/1 51/53/1 54/53/1
f 56/48/1 53/48/1 52/48/1
f 57/16/1 54/16/1 53/16/1
f 57/48/1 53/48/1 56/48/1
f 58/16/1 54/16/1 57/16/1
f 59/20/2 60/20/2 63/20/2
f 60/5/2 61/5/2 64/5/2
f 63/20/2 60/20/2 64/20/2
f 61/9/2 62/9/2 65/9/2
f 64/5/2 61/5/2 65/5/2
f 65/9/2 62/9/2 66/9/2
f 63/17/2 64/17/2 67/17/2
f 64/3/2 65/3/2 68/3/2
f 67/17/2 64/17/2 68/17/2
f 65/18/2 66/18/2 69/18/2
f 68/3/2 65/3/2 69/3/2
f 69/18/2 66/18/2 70/18/2
f 67/27/2 68/27/2 71/27/2
f 68/22/2 69/22/2 72/22/2
f 71/27/2 68/27/2 72/27/2
f 69/15/2 70/15/2 73/15/2
f 72/22/2 69/22/2 73/22/2
f 73/15/2 70/15/2 74/15/2
f 75/59/2 76/59/2 77/59/2
f 77/59/2 76/59/2 78/59/2
f 79/4/2 80/4/2 81/4/2
f 81/4/2 80/4/2 82/4/2
f 83/44/2 84/44/2 88/44/2
f 88/44/2 84/44/2 89/44/2
f 85/51/2 86/51/2 91/51/2
f 86/58/2 87/58/2 92/58/2
f 91/51/2 86/51/2 92/51/2
f 92/58/2 87/58/2 93/58/2
f 88/57/2 89/57/2 94/57/2
f 89/49/2 90/49/2 95/49/2
f 94/57/2 89/57/2 95/57/2
f 90/2/2 91/2/2 96/2/2
f 95/49/2 90/49/2 96/49/2
f 91/19/2 92/19/2 97/19/2
f 96/2/2 91/2/2 97/2/2
f 97/19/2 92/19/2 98/19/2
f 99/36/2 100/36/2 105/36/2
f 100/32/2 101/32/2 106/32/2
f 105/36/2 100/36/2 106/36/2
f 101/48/2 102/48/2 107/48/2
f 106/32/2 101/32/2 107/32/2
f 102/4/2 103/4/2 108/4/2
f 107/48/2 102/48/2 108/48/2
f 108/4/2 103/4/2 109/4/2
f 104/4/2 105/4/2 110/4/2
f 105/44/2 106/44/2 111/44/2
f 110/4/2 105/4/2 111/4/2
f 106/37/2 107/37/2 112/37/2
f 111/44/2 106/44/2 112/44/2
f 107/52/2 108/52/2 113/52/2
f 112/37/2 107/37/2 113/37/2
f 108/36/2 109/36/2 114/36/2
f 113/52/2 108/52/2 114/52/2
f 114/36/2 109/36/2 115/36/2
f 110/44/2 111/44/2 116/44/2
f 111/45/2 112/45/2 117/45/2
f 116/44/2 111/44/2 117/44/2
f 112/23/2 113/23/2 118/23/2
f 117/45/2 112/45/2 118/45/2
f 113/53/2 114/53/2 119/53/2
f 118/23/2 113/23/2 119/23/2
f 114/59/2 115/59/2 120/59/2
f 119/53/2 114/53/2 120/53/2
f 120/59/2 115/59/2 121/59/2
f 117/48/2 118/48/2 122/48/2
f 118/16/2 119/16/2 123/16/2
f 122/48/2 118/48/2 123/48/2
f 123/16/2 119/16/2 124/16/2
f 130/8/3 126/8/3 125/8/3
f 131/25/3 127/25/3 126/25/3
f 131/8/3 126/8/3 130/8/3
f 132/27/3 128/27/3 127/27/3
f 132/25/3 127/25/3 131/25/3
f 133/46/3 129/46/3 128/46/3
f 133/27/3 128/27/3 132/27/3
f 134/46/3 129/46/3 133/46/3
f 136/9/3 131/9/3 130/9/3
f 137/18/3 132/18/3 131/18/3
f 137/9/3 131/9/3 136/9/3
f 138/30/3 133/30/3 132/30/3
f 138/18/3 132/18/3 137/18/3
f 139/54/3 134/54/3 133/54/3
f 139/30/3 133/30/3 138/30/3
f 140/60/3 135/60/3 134/60/3
f 140/54/3 134/54/3 139/54/3
f 141/60/3 135/60/3 140/60/3
f 142/21/3 137/21/3 136/21/3
f 143/1/3 138/1/3 137/1/3
f 143/21/3 137/21/3 142/21/3
f 144/41/3 139/41/3 138/41/3
f 144/1/3 138/1/3 143/1/3
f 145/52/3 140/52/3 139/52/3
f 145/41/3 139/41/3 144/41/3
f 146/56/3 141/56/3 140/56/3
f 146/52/3 140/52/3 145/52/3
f 147/56/3 141/56/3 146/56/3
f 148/4/3 143/4/3 142/4/3
f 149/36/3 144/36/3 143/36/3
f 149/4/3 143/4/3 148/4/3
f 150/47/3 145/47/3 144/47/3
f 150/36/3 144/36/3 149/36/3
f 151/44/3 146/44/3 145/44/3
f 151/47/3 145/47/3 150/47/3
f 152/57/3 147/57/3 146/57/3
f 152/44/3 146/44/3 151/44/3
f 153/57/3 147/57/3 152/57/3
f 154/4/3 150/4/3 149/4/3
f 155/44/3 151/44/3 150/44/3
f 155/4/3 150/4/3 154/4/3
f 156/44/3 151/44/3 155/44/3
f 159/40/3 158/40/3 157/40/3
f 160/40/3 158/40/3 159/40/3
f 165/36/3 162/36/3 161/36/3
f 166/36/3 162/36/3 165/36/3
f 167/48/3 164/48/3 163/48/3
f 168/48/3 164/48/3 167/48/3
f 171/51/3 170/51/3 169/51/3
f 172/51/3 170/51/3 171/51/3
f 177/29/3 174/29/3 173/29/3
f 178/34/3 175/34/3 174/34/3
f 178/29/3 174/29/3 177/29/3
f 179/33/3 176/33/3 175/33/3
f 179/34/3 175/34/3 178/34/3
f 180/33/3 176/33/3 179/33/3
f 181/36/3 178/36/3 177/36/3
f 182/50/3 179/50/3 178/50/3
f 182/36/3 178/36/3 181/36/3
f 183/55/3 180/55/3 179/55/3
f 183/50/3 179/50/3 182/50/3
f 184/55/3 180/55/3 183/55/3
f 185/7/3 182/7/3 181/7/3
f 186/51/3 183/51/3 182/51/3
f 186/7/3 182/7/3 185/7/3
f 187/51/3 183/51/3 186/51/3
f 188/18/4 189/18/4 192/18/4
f 189/30/4 190/30/4 193/30/4
f 192/18/4 189/18/4 193/18/4
f 190/54/4 191/54/4 194/54/4
f 193/30/4 190/30/4 194/30/4
f 194/54/4 191/54/4 195/54/4
f 192/1/4 193/1/4 196/1/4
f 193/41/4 194/41/4 197/41/4
f 196/1/4 193/1/4 197/1/4
f 194/52/4 195/52/4 198/52/4
f 197/41/4 194/41/4 198/41/4
f 198/52/4 195/52/4 199/52/4
f 196/36/4 197/36/4 200/36/4
f 197/47/4 198/47/4 201/47/4
f 200/36/4 197/36/4 201/36/4
f 198/44/4 199/44/4 202/44/4
f 201/47/4 198/47/4 202/47/4
f 202/44/4 199/44/4 203/44/4
f 204/16/4 205/16/4 206/16/4
f 206/16/4 205/16/4 207/16/4
f 208/19/4 209/19/4 210/19/4
f 210/19/4 209/19/4 211/19/4
f 212/9/4 213/9/4 218/9/4
f 213/13/4 214/13/4 219/13/4
f 218/9/4 213/9/4 219/9/4
f 214/22/4 215/22/4 220/22/4
f 219/13/4 214/13/4 220/13/4
f 215/14/4 216/14/4 221/14/4
f 220/22/4 215/22/4 221/22/4
f 216/16/4 217/16/4 222/16/4
f 221/14/4 216/14/4 222/14/4
f 222/16/4 217/16/4 223/16/4
f 218/23/4 219/23/4 224/23/4
f 219/29/4 220/29/4 225/29/4
f 224/23/4 219/23/4 225/23/4
f 220/34/4 221/34/4 226/34/4
f 225/29/4 220/29/4 226/29/4
f 221/33/4 222/33/4 227/33/4
f 226/34/4 221/34/4 227/34/4
f 222/52/4 223/52/4 228/52/4
f 227/33/4 222/33/4 228/33/4
f 228/52/4 223/52/4 229/52/4
f 224/42/4 225/42/4 230/42/4
f 225/36/4 226/36/4 231/36/4
f 230/42/4 225/42/4 231/42/4
f 226/50/4 227/50/4 232/50/4
f 231/36/4 226/36/4 232/36/4
f 227/55/4 228/55/4 233/55/4
f 232/50/4 227/50/4 233/50/4
f 228/59/4 229/59/4 234/59/4
f 233/55/4 228/55/4 234/55/4
f 234/59/4 229/59/4 235/59/4
f 230/43/4 231/43/4 236/43/4
f 231/7/4 232/7/4 237/7/4
f 236/43/4 231/43/4 237/43/4
f 232/51/4 233/51/4 238/51/4
f 237/7/4 232/7/4 238/7/4
f 233/58/4 234/58/4 239/58/4
f 238/51/4 233/51/4 239/51/4
f 239/58/4 234/58/4 240/58/4
f 236/4/4 237/4/4 241/4/4
f 237/36/4 238/36/4 242/36/4
f 241/4/4 237/4/4 242/4/4
f 238/59/4 239/59/4 243/59/4
f 242/36/4 238/36/4 243/36/4
f 243/59/4 239/59/4 244/59/4
f 250/8/5 246/8/5 245/8/5
f 251/9/5 247/9/5 246/9/5
f 251/8/5 246/8/5 250/8/5
f 252/21/5 248/21/5 247/21/5
f 252/9/5 247/9/5 251/9/5
f 253/4/5 249/4/5 248/4/5
f 253/21/5 248/21/5 252/21/5
f 254/4/5 249/4/5 253/4/5
f 256/11/5 251/11/5 250/11/5
f 257/24/5 252/24/5 251/24/5
f 257/11/5 251/11/5 256/11/5
f 258/28/5 253/28/5 252/28/5
f 258/24/5 252/24/5 257/24/5
f 259/6/5 254/6/5 253/6/5
f 259/28/5 253/28/5 258/28/5
f 260/36/5 255/36/5 254/36/5
f 260/6/5 254/6/5 259/6/5
f 261/36/5 255/36/5 260/36/5
f 262/1/5 257/1/5 256/1/5
f 263/12/5 258/12/5 257/12/5
f 263/1/5 257/1/5 262/1/5
f 264/1/5 259/1/5 258/1/5
f 264/12/5 258/12/5 263/12/5
f 265/35/5 260/35/5 259/35/5
f 265/1/5 259/1/5 264/1/5
f 266/32/5 261/32/5 260/32/5
f 266/35/5 260/35/5 265/35/5
f 267/32/5 261/32/5 266/32/5
f 268/10/5 263/10/5 262/10/5
f 269/24/5 264/24/5 263/24/5
f 269/10/5 263/10/5 268/10/5
f 270/26/5 265/26/5 264/26/5
f 270/24/5 264/24/5 269/24/5
f 271/38/5 266/38/5 265/38/5
f 271/26/5 265/26/5 270/26/5
f 272/48/5 267/48/5 266/48/5
f 272/38/5 266/38/5 271/38/5
f 273/48/5 267/48/5 272/48/5
f 274/9/5 269/9/5 268/9/5
f 275/23/5 270/23/5 269/23/5
f 275/9/5 269/9/5 274/9/5
f 276/42/5 271/42/5 270/42/5
f 276/23/5 270/23/5 275/23/5
f 277/43/5 272/43/5 271/43/5
f 277/42/5 271/42/5 276/42/5
f 278/4/5 273/4/5 272/4/5
f 278/43/5 272/43/5 277/43/5
f 279/4/5 273/4/5 278/4/5
f 282/4/5 281/4/5 280/4/5
f 283/4/5 281/4/5 282/4/5
f 286/51/5 285/51/5 284/51/5
f 287/51/5 285/51/5 286/51/5
f 292/52/5 289/52/5 288/52/5
f 293/31/5 290/31/5 289/31/5
f 293/52/5 289/52/5 292/52/5
f 294/49/5 291/49/5 290/49/5
f 294/31/5 290/31/5 293/31/5
f 295/49/5 291/49/5 294/49/5
f 296/25/5 293/25/5 292/25/5
f 297/27/5 294/27/5 293/27/5
f 297/25/5 293/25/5 296/25/5
f 298/2/5 295/2/5 294/2/5
f 298/27/5 294/27/5 297/27/5
f 299/2/5 295/2/5 298/2/5
f 300/39/5 297/39/5 296/39/5
f 301/45/5 298/45/5 297/45/5
f 301/39/5 297/39/5 300/39/5
f 302/45/5 298/45/5 301/45/5
f 303/24/6 304/24/6 307/24/6
f 304/28/6 305/28/6 308/28/6
f 307/24/6 304/24/6 308/24/6
f 305/6/6 306/6/6 309/6/6
f 308/28/6 305/28/6 309/28/6
f 309/6/6 306/6/6 310/6/6
f 307/12/6 308/12/6 311/12/6
f 308/1/6 309/1/6 312/1/6
f 311/12/6 308/12/6 312/12/6
f 309/35/6 310/35/6 313/35/6
f 312/1/6 309/1/6 313/1/6
f 313/35/6 310/35/6 314/35/6
f 311/24/6 312/24/6 315/24/6
f 312/26/6 313/26/6 316/26/6
f 315/24/6 312/24/6 316/24/6
f 313/38/6 314/38/6 317/38/6
f 316/26/6 313/26/6 317/26/6
f 317/38/6 314/38/6 318/38/6
f 319/44/6 320/44/6 321/44/6
f 321/44/6 320/44/6 322/44/6
f 323/53/6 324/53/6 325/53/6
f 325/53/6 324/53/6 326/53/6
f 325/59/6 326/59/6 327/59/6
f 327/59/6 326/59/6 328/59/6
f 329/46/6 330/46/6 331/46/6
f 331/46/6 330/46/6 332/46/6
f 333/48/6 334/48/6 335/48/6
f 335/48/6 334/48/6 336/48/6
f 335/16/6 336/16/6 337/16/6
f 337/16/6 336/16/6 338/16/6
f 339/58/6 340/58/6 341/58/6
f 341/58/6 340/58/6 342/58/6
f 343/60/6 344/60/6 348/60/6
f 344/56/6 345/56/6 349/56/6
f 348/60/6 344/60/6 349/60/6
f 345/57/6 346/57/6 350/57/6
f 349/56/6 345/56/6 350/56/6
f 350/57/6 346/57/6 351/57/6
f 347/40/6 348/40/6 352/40/6
f 348/52/6 349/52/6 353/52/6
f 352/40/6 348/40/6 353/40/6
f 349/31/6 350/31/6 354/31/6
f 353/52/6 349/52/6 354/52/6
f 350/49/6 351/49/6 355/49/6
f 354/31/6 350/31/6 355/31/6
f 355/49/6 351/49/6 356/49/6
f 352/32/6 353/32/6 357/32/6
f 353/25/6 354/25/6 358/25/6
f 357/32/6 353/32/6 358/32/6
f 354/27/6 355/27/6 359/27/6
f 358/25/6 354/25/6 359/25/6
f 355/2/6 356/2/6 360/2/6
f 359/27/6 355/27/6 360/27/6
f 360/2/6 356/2/6 361/2/6
f 357/20/6 358/20/6 362/20/6
f 358/39/6 359/39/6 363/39/6
f 362/20/6 358/20/6 363/20/6
f 359/45/6 360/45/6 364/45/6
f 363/39/6 359/39/6 364/39/6
f 360/19/6 361/19/6 365/19/6
f 364/45/6 360/45/6 365/45/6
f 365/19/6 361/19/6 366/19/6
f 362/16/6 363/16/6 367/16/6
f 363/52/6 364/52/6 368/52/6
f 367/16/6 363/16/6 368/16/6
f 364/59/6 365/59/6 369/59/6
f 368/52/6 364/52/6 369/52/6
f 369/59/6 365/59/6 370/59/6
