# MagicaVoxel @ Ephtracy

# group
o 

# material
mtllib sandstone34_5x6x6.mtl
usemtl palette

# normals
vn -1 0 0
vn 1 0 0
vn 0 0 1
vn 0 0 -1
vn 0 -1 0
vn 0 1 0

# texcoords
vt 0.0175781 0.5
vt 0.0214844 0.5
vt 0.0371094 0.5
vt 0.0488281 0.5
vt 0.0527344 0.5
vt 0.0566406 0.5
vt 0.0605469 0.5
vt 0.0800781 0.5
vt 0.111328 0.5
vt 0.115234 0.5
vt 0.119141 0.5
vt 0.154297 0.5
vt 0.158203 0.5
vt 0.177734 0.5
vt 0.181641 0.5
vt 0.193359 0.5
vt 0.205078 0.5
vt 0.208984 0.5
vt 0.220703 0.5
vt 0.228516 0.5
vt 0.232422 0.5
vt 0.240234 0.5
vt 0.248047 0.5
vt 0.263672 0.5
vt 0.267578 0.5
vt 0.271484 0.5
vt 0.275391 0.5
vt 0.279297 0.5
vt 0.287109 0.5
vt 0.306641 0.5
vt 0.330078 0.5
vt 0.337891 0.5
vt 0.341797 0.5
vt 0.345703 0.5
vt 0.353516 0.5
vt 0.365234 0.5
vt 0.369141 0.5
vt 0.384766 0.5
vt 0.392578 0.5
vt 0.455078 0.5
vt 0.458984 0.5
vt 0.466797 0.5
vt 0.490234 0.5
vt 0.498047 0.5
vt 0.501953 0.5
vt 0.513672 0.5
vt 0.517578 0.5
vt 0.525391 0.5
vt 0.529297 0.5
vt 0.548828 0.5
vt 0.552734 0.5
vt 0.556641 0.5
vt 0.560547 0.5
vt 0.568359 0.5

# verts
v -0.2 -0.2 0
v -0.2 -0.2 -0.1
v -0.2 -0.2 -0.2
v -0.2 -0.1 0.1
v -0.2 -0.1 0
v -0.2 -0.1 -0.1
v -0.2 -0.1 -0.2
v -0.2 0 0.1
v -0.2 0 0
v -0.2 0.1 0
v -0.2 0.1 -0.1
v -0.2 0.1 -0.2
v -0.2 0.2 0
v -0.2 0.2 -0.1
v -0.2 0.2 -0.2
v -0.2 0.3 0.1
v -0.2 0.3 0
v -0.2 0.3 -0.1
v -0.1 -0.3 -0.1
v -0.1 -0.3 -0.2
v -0.1 -0.3 -0.3
v -0.1 -0.2 0.2
v -0.1 -0.2 0.1
v -0.1 -0.2 0
v -0.1 -0.2 -0.1
v -0.1 -0.2 -0.2
v -0.1 -0.2 -0.3
v -0.1 -0.1 0.2
v -0.1 -0.1 0.1
v -0.1 -0.1 0
v -0.1 -0.1 -0.2
v -0.1 -0.1 -0.3
v -0.1 0 0.2
v -0.1 0 0.1
v -0.1 0 -0.2
v -0.1 0 -0.3
v -0.1 0.2 0.2
v -0.1 0.2 0.1
v -0.1 0.3 0.2
v -0.1 0.3 0.1
v 0 -0.3 0.3
v 0 -0.3 0.2
v 0 -0.3 0.1
v 0 -0.3 0
v 0 -0.3 -0.1
v 0 -0.2 0.3
v 0 -0.2 0.2
v 0 -0.2 0.1
v 0 -0.2 0
v 0 -0.2 -0.1
v 0 -0.1 0.3
v 0 -0.1 0.2
v 0 0 0.3
v 0 0 0.2
v 0 0.1 0.3
v 0 0.1 0.2
v 0 0.2 0.3
v 0 0.2 0.2
v 0 0.3 0.3
v 0 0.3 0.2
v 0.1 0.1 0
v 0.1 0.1 -0.1
v 0.1 0.2 0
v 0.1 0.2 -0.1
v 0.2 -0.2 0.2
v 0.2 -0.2 0.1
v 0.2 -0.2 0
v 0.2 -0.2 -0.1
v 0.2 -0.2 -0.2
v 0.2 -0.1 0.2
v 0.2 -0.1 0.1
v 0.2 -0.1 0
v 0.2 -0.1 -0.1
v 0.2 -0.1 -0.2
v 0.2 0 0.2
v 0.2 0 0.1
v 0.2 0 0
v 0.2 0 -0.1
v 0.2 0 -0.2
v 0.2 0.1 0.2
v 0.2 0.1 0.1
v 0.2 0.1 0
v 0.2 0.1 -0.1
v 0.2 0.2 0.2
v 0.2 0.2 0.1
v 0.2 0.2 0
v -0.1 -0.2 -0.1
v -0.1 -0.2 -0.2
v -0.1 -0.1 0.1
v -0.1 -0.1 0
v -0.1 -0.1 -0.1
v -0.1 -0.1 -0.2
v -0.1 0 0.1
v -0.1 0 0
v -0.1 0 -0.1
v -0.1 0 -0.2
v -0.1 0.1 0
v -0.1 0.1 -0.1
v -0.1 0.2 0.1
v -0.1 0.2 0
v -0.1 0.2 -0.1
v 0 -0.2 0.2
v 0 -0.2 0.1
v 0 -0.2 0
v 0 -0.2 -0.1
v 0 -0.1 0.2
v 0 -0.1 0.1
v 0 -0.1 0
v 0 -0.1 -0.1
v 0 0 0.2
v 0 0 0.1
v 0 0.1 0.2
v 0 0.2 0.2
v 0 0.2 0.1
v 0.1 0.2 0
v 0.1 0.2 -0.1
v 0.1 0.3 0
v 0.1 0.3 -0.1
v 0.2 -0.3 -0.1
v 0.2 -0.3 -0.2
v 0.2 -0.3 -0.3
v 0.2 -0.2 -0.1
v 0.2 -0.2 -0.2
v 0.2 -0.2 -0.3
v 0.2 -0.1 -0.2
v 0.2 -0.1 -0.3
v 0.2 0 -0.2
v 0.2 0 -0.3
v 0.2 0.1 0
v 0.2 0.1 -0.1
v 0.2 0.1 -0.2
v 0.2 0.2 0.3
v 0.2 0.2 0.2
v 0.2 0.2 0
v 0.2 0.2 -0.1
v 0.2 0.2 -0.2
v 0.2 0.3 0.3
v 0.2 0.3 0.2
v 0.3 -0.3 0.3
v 0.3 -0.3 0.2
v 0.3 -0.3 0.1
v 0.3 -0.3 0
v 0.3 -0.3 -0.1
v 0.3 -0.2 0.3
v 0.3 -0.2 0.2
v 0.3 -0.2 0.1
v 0.3 -0.2 0
v 0.3 -0.2 -0.1
v 0.3 -0.2 -0.2
v 0.3 -0.1 0.3
v 0.3 -0.1 0.2
v 0.3 -0.1 0.1
v 0.3 -0.1 0
v 0.3 -0.1 -0.1
v 0.3 -0.1 -0.2
v 0.3 0 0.3
v 0.3 0 0.2
v 0.3 0 0.1
v 0.3 0 0
v 0.3 0 -0.1
v 0.3 0 -0.2
v 0.3 0.1 0.3
v 0.3 0.1 0.2
v 0.3 0.1 0.1
v 0.3 0.1 0
v 0.3 0.1 -0.1
v 0.3 0.1 -0.2
v 0.3 0.2 0.3
v 0.3 0.2 0.2
v 0.3 0.2 0.1
v 0.3 0.2 0
v 0.3 0.3 0.2
v 0.3 0.3 0
v 0 -0.3 0.3
v 0 -0.2 0.3
v 0 -0.1 0.3
v 0 0 0.3
v 0 0.1 0.3
v 0 0.2 0.3
v 0 0.3 0.3
v 0.1 -0.3 0.3
v 0.1 -0.2 0.3
v 0.1 -0.1 0.3
v 0.1 0 0.3
v 0.1 0.1 0.3
v 0.1 0.2 0.3
v 0.1 0.3 0.3
v 0.2 -0.3 0.3
v 0.2 -0.2 0.3
v 0.2 -0.1 0.3
v 0.2 0 0.3
v 0.2 0.1 0.3
v 0.2 0.2 0.3
v 0.2 0.3 0.3
v 0.3 -0.3 0.3
v 0.3 -0.2 0.3
v 0.3 -0.1 0.3
v 0.3 0 0.3
v 0.3 0.1 0.3
v 0.3 0.2 0.3
v -0.1 -0.2 0.2
v -0.1 -0.1 0.2
v -0.1 0 0.2
v -0.1 0.2 0.2
v -0.1 0.3 0.2
v 0 -0.2 0.2
v 0 -0.1 0.2
v 0 0 0.2
v 0 0.1 0.2
v 0 0.2 0.2
v 0 0.3 0.2
v 0.2 0.2 0.2
v 0.2 0.3 0.2
v 0.3 0.2 0.2
v 0.3 0.3 0.2
v -0.2 -0.1 0.1
v -0.2 0 0.1
v -0.2 0.3 0.1
v -0.1 -0.1 0.1
v -0.1 0 0.1
v -0.1 0.2 0.1
v -0.1 0.3 0.1
v -0.2 -0.2 0
v -0.2 -0.1 0
v -0.1 -0.2 0
v -0.1 -0.1 0
v 0.1 0.1 0
v 0.1 0.2 0
v 0.2 0.1 0
v 0.2 0.2 0
v -0.1 -0.3 -0.1
v -0.1 -0.2 -0.1
v -0.1 0 -0.1
v -0.1 0.1 -0.1
v -0.1 0.2 -0.1
v 0 -0.3 -0.1
v 0 -0.2 -0.1
v 0 0 -0.1
v 0 0.1 -0.1
v 0 0.2 -0.1
v 0.1 0 -0.1
v 0.1 0.1 -0.1
v 0.1 0.2 -0.1
v 0.2 0 -0.1
v 0.2 0.1 -0.1
v -0.1 -0.2 -0.2
v -0.1 -0.1 -0.2
v -0.1 0 -0.2
v 0 -0.2 -0.2
v 0 -0.1 -0.2
v 0 0 -0.2
v 0.1 -0.2 -0.2
v 0.1 0 -0.2
v 0.2 -0.2 -0.2
v 0.2 -0.1 -0.2
v 0.2 0 -0.2
v 0 -0.2 0.2
v 0 -0.1 0.2
v 0 0 0.2
v 0 0.1 0.2
v 0 0.2 0.2
v 0.1 -0.2 0.2
v 0.1 -0.1 0.2
v 0.1 0 0.2
v 0.1 0.1 0.2
v 0.1 0.2 0.2
v 0.2 -0.2 0.2
v 0.2 -0.1 0.2
v 0.2 0 0.2
v 0.2 0.1 0.2
v 0.2 0.2 0.2
v -0.1 -0.1 0.1
v -0.1 0 0.1
v -0.1 0.2 0.1
v 0 -0.1 0.1
v 0 0 0.1
v 0 0.2 0.1
v 0.1 0.2 0
v 0.1 0.3 0
v 0.2 0.1 0
v 0.2 0.2 0
v 0.2 0.3 0
v 0.3 0.1 0
v 0.3 0.2 0
v 0.3 0.3 0
v -0.2 0.2 -0.1
v -0.2 0.3 -0.1
v -0.1 -0.2 -0.1
v -0.1 -0.1 -0.1
v -0.1 0.2 -0.1
v -0.1 0.3 -0.1
v 0 -0.2 -0.1
v 0 -0.1 -0.1
v 0 0.2 -0.1
v 0 0.3 -0.1
v 0.1 0.2 -0.1
v 0.1 0.3 -0.1
v 0.2 -0.3 -0.1
v 0.2 -0.2 -0.1
v 0.3 -0.3 -0.1
v 0.3 -0.2 -0.1
v -0.2 -0.2 -0.2
v -0.2 -0.1 -0.2
v -0.2 0.1 -0.2
v -0.2 0.2 -0.2
v -0.1 -0.2 -0.2
v -0.1 -0.1 -0.2
v -0.1 0 -0.2
v -0.1 0.1 -0.2
v -0.1 0.2 -0.2
v 0 0 -0.2
v 0 0.1 -0.2
v 0 0.2 -0.2
v 0.1 0 -0.2
v 0.1 0.1 -0.2
v 0.1 0.2 -0.2
v 0.2 -0.2 -0.2
v 0.2 -0.1 -0.2
v 0.2 0 -0.2
v 0.2 0.1 -0.2
v 0.2 0.2 -0.2
v 0.3 -0.2 -0.2
v 0.3 -0.1 -0.2
v 0.3 0 -0.2
v 0.3 0.1 -0.2
v -0.1 -0.3 -0.3
v -0.1 -0.2 -0.3
v -0.1 -0.1 -0.3
v -0.1 0 -0.3
v 0 -0.3 -0.3
v 0 -0.2 -0.3
v 0 -0.1 -0.3
v 0.2 -0.3 -0.3
v 0.2 -0.2 -0.3
v 0.2 -0.1 -0.3
v 0.2 0 -0.3
v 0 -0.3 0.3
v 0.1 -0.3 0.3
v 0.2 -0.3 0.3
v 0.3 -0.3 0.3
v 0 -0.3 0.2
v 0.1 -0.3 0.2
v 0.2 -0.3 0.2
v 0.3 -0.3 0.2
v 0 -0.3 0.1
v 0.1 -0.3 0.1
v 0.2 -0.3 0.1
v 0.3 -0.3 0.1
v 0 -0.3 0
v 0.1 -0.3 0
v 0.2 -0.3 0
v 0.3 -0.3 0
v -0.1 -0.3 -0.1
v 0 -0.3 -0.1
v 0.1 -0.3 -0.1
v 0.2 -0.3 -0.1
v 0.3 -0.3 -0.1
v -0.1 -0.3 -0.2
v 0 -0.3 -0.2
v 0.1 -0.3 -0.2
v 0.2 -0.3 -0.2
v -0.1 -0.3 -0.3
v 0 -0.3 -0.3
v 0.2 -0.3 -0.3
v -0.1 -0.2 0.2
v 0 -0.2 0.2
v -0.1 -0.2 0.1
v 0 -0.2 0.1
v -0.2 -0.2 0
v -0.1 -0.2 0
v 0 -0.2 0
v -0.2 -0.2 -0.1
v -0.1 -0.2 -0.1
v 0 -0.2 -0.1
v 0.2 -0.2 -0.1
v 0.3 -0.2 -0.1
v -0.2 -0.2 -0.2
v -0.1 -0.2 -0.2
v 0.2 -0.2 -0.2
v 0.3 -0.2 -0.2
v -0.2 -0.1 0.1
v -0.1 -0.1 0.1
v -0.2 -0.1 0
v -0.1 -0.1 0
v -0.1 0 -0.1
v 0 0 -0.1
v 0.1 0 -0.1
v 0.2 0 -0.1
v -0.1 0 -0.2
v 0 0 -0.2
v 0.1 0 -0.2
v 0.2 0 -0.2
v 0.1 0.1 0
v 0.2 0.1 0
v 0.1 0.1 -0.1
v 0.2 0.1 -0.1
v 0 0.2 0.2
v 0.1 0.2 0.2
v 0.2 0.2 0.2
v -0.1 0.2 0.1
v 0 0.2 0.1
v 0.1 0.2 0.1
v 0.2 0.2 0.1
v -0.1 0.2 0
v 0 0.2 0
v 0.1 0.2 0
v 0.2 0.2 0
v -0.1 0.2 -0.1
v 0 0.2 -0.1
v 0.1 0.2 -0.1
v 0 -0.2 0.2
v 0.1 -0.2 0.2
v 0.2 -0.2 0.2
v 0 -0.2 0.1
v 0.1 -0.2 0.1
v 0.2 -0.2 0.1
v 0 -0.2 0
v 0.1 -0.2 0
v 0.2 -0.2 0
v -0.1 -0.2 -0.1
v 0 -0.2 -0.1
v 0.1 -0.2 -0.1
v 0.2 -0.2 -0.1
v -0.1 -0.2 -0.2
v 0 -0.2 -0.2
v 0.1 -0.2 -0.2
v 0.2 -0.2 -0.2
v -0.1 -0.1 0.1
v 0 -0.1 0.1
v -0.1 -0.1 0
v 0 -0.1 0
v -0.1 -0.1 -0.1
v 0 -0.1 -0.1
v -0.1 0 -0.2
v 0 0 -0.2
v 0.1 0 -0.2
v 0.2 0 -0.2
v -0.1 0 -0.3
v 0.2 0 -0.3
v 0.2 0.1 0
v 0.3 0.1 0
v 0.2 0.1 -0.1
v 0.3 0.1 -0.1
v 0.2 0.1 -0.2
v 0.3 0.1 -0.2
v 0.2 0.2 0.3
v 0.3 0.2 0.3
v 0.2 0.2 0.2
v 0.3 0.2 0.2
v 0.1 0.2 0
v 0.2 0.2 0
v -0.2 0.2 -0.1
v -0.1 0.2 -0.1
v 0 0.2 -0.1
v 0.1 0.2 -0.1
v 0.2 0.2 -0.1
v -0.2 0.2 -0.2
v -0.1 0.2 -0.2
v 0 0.2 -0.2
v 0.1 0.2 -0.2
v 0.2 0.2 -0.2
v 0 0.3 0.3
v 0.1 0.3 0.3
v 0.2 0.3 0.3
v -0.1 0.3 0.2
v 0 0.3 0.2
v 0.1 0.3 0.2
v 0.2 0.3 0.2
v 0.3 0.3 0.2
v -0.2 0.3 0.1
v -0.1 0.3 0.1
v 0 0.3 0.1
v 0.1 0.3 0.1
v 0.2 0.3 0.1
v -0.2 0.3 0
v -0.1 0.3 0
v 0 0.3 0
v 0.1 0.3 0
v 0.2 0.3 0
v 0.3 0.3 0
v -0.2 0.3 -0.1
v -0.1 0.3 -0.1
v 0 0.3 -0.1
v 0.1 0.3 -0.1

# faces
f 5/46/1 2/46/1 1/46/1
f 6/17/1 3/17/1 2/17/1
f 6/46/1 2/46/1 5/46/1
f 7/17/1 3/17/1 6/17/1
f 8/54/1 5/54/1 4/54/1
f 9/28/1 6/28/1 5/28/1
f 9/54/1 5/54/1 8/54/1
f 10/28/1 9/28/1 8/28/1
f 10/28/1 6/28/1 9/28/1
f 11/19/1 7/19/1 6/19/1
f 11/28/1 6/28/1 10/28/1
f 12/19/1 7/19/1 11/19/1
f 13/28/1 10/28/1 8/28/1
f 13/46/1 11/46/1 10/46/1
f 14/18/1 12/18/1 11/18/1
f 14/46/1 11/46/1 13/46/1
f 15/18/1 12/18/1 14/18/1
f 16/28/1 13/28/1 8/28/1
f 17/51/1 14/51/1 13/51/1
f 17/28/1 13/28/1 16/28/1
f 18/51/1 14/51/1 17/51/1
f 25/7/1 20/7/1 19/7/1
f 26/4/1 21/4/1 20/4/1
f 26/7/1 20/7/1 25/7/1
f 27/4/1 21/4/1 26/4/1
f 28/20/1 23/20/1 22/20/1
f 29/42/1 24/42/1 23/42/1
f 29/20/1 23/20/1 28/20/1
f 30/42/1 24/42/1 29/42/1
f 31/5/1 27/5/1 26/5/1
f 32/5/1 27/5/1 31/5/1
f 33/12/1 29/12/1 28/12/1
f 34/12/1 29/12/1 33/12/1
f 35/1/1 32/1/1 31/1/1
f 36/1/1 32/1/1 35/1/1
f 37/15/1 34/15/1 33/15/1
f 38/15/1 34/15/1 37/15/1
f 39/22/1 38/22/1 37/22/1
f 40/22/1 38/22/1 39/22/1
f 46/6/1 42/6/1 41/6/1
f 47/16/1 43/16/1 42/16/1
f 47/6/1 42/6/1 46/6/1
f 48/6/1 44/6/1 43/6/1
f 48/16/1 43/16/1 47/16/1
f 49/31/1 45/31/1 44/31/1
f 49/6/1 44/6/1 48/6/1
f 50/31/1 45/31/1 49/31/1
f 51/39/1 47/39/1 46/39/1
f 52/39/1 47/39/1 51/39/1
f 53/5/1 52/5/1 51/5/1
f 54/5/1 52/5/1 53/5/1
f 55/38/1 54/38/1 53/38/1
f 56/38/1 54/38/1 55/38/1
f 57/31/1 56/31/1 55/31/1
f 58/31/1 56/31/1 57/31/1
f 59/3/1 58/3/1 57/3/1
f 60/3/1 58/3/1 59/3/1
f 63/53/1 62/53/1 61/53/1
f 64/53/1 62/53/1 63/53/1
f 70/28/1 66/28/1 65/28/1
f 71/48/1 67/48/1 66/48/1
f 71/28/1 66/28/1 70/28/1
f 72/42/1 68/42/1 67/42/1
f 72/48/1 67/48/1 71/48/1
f 73/40/1 69/40/1 68/40/1
f 73/42/1 68/42/1 72/42/1
f 74/40/1 69/40/1 73/40/1
f 75/27/1 71/27/1 70/27/1
f 76/48/1 72/48/1 71/48/1
f 76/27/1 71/27/1 75/27/1
f 77/30/1 73/30/1 72/30/1
f 77/48/1 72/48/1 76/48/1
f 78/44/1 74/44/1 73/44/1
f 78/30/1 73/30/1 77/30/1
f 79/44/1 74/44/1 78/44/1
f 80/10/1 76/10/1 75/10/1
f 81/49/1 77/49/1 76/49/1
f 81/10/1 76/10/1 80/10/1
f 82/50/1 78/50/1 77/50/1
f 82/49/1 77/49/1 81/49/1
f 83/50/1 78/50/1 82/50/1
f 84/9/1 81/9/1 80/9/1
f 85/29/1 82/29/1 81/29/1
f 85/9/1 81/9/1 84/9/1
f 86/29/1 82/29/1 85/29/1
f 87/17/2 88/17/2 91/17/2
f 91/17/2 88/17/2 92/17/2
f 89/54/2 90/54/2 93/54/2
f 90/28/2 91/28/2 94/28/2
f 93/54/2 90/54/2 94/54/2
f 91/19/2 92/19/2 95/19/2
f 94/28/2 91/28/2 95/28/2
f 95/19/2 92/19/2 96/19/2
f 93/28/2 94/28/2 97/28/2
f 94/28/2 95/28/2 97/28/2
f 97/28/2 95/28/2 98/28/2
f 93/28/2 97/28/2 99/28/2
f 97/46/2 98/46/2 100/46/2
f 99/28/2 97/28/2 100/28/2
f 100/46/2 98/46/2 101/46/2
f 102/20/2 103/20/2 106/20/2
f 103/42/2 104/42/2 107/42/2
f 106/20/2 103/20/2 107/20/2
f 104/41/2 105/41/2 108/41/2
f 107/42/2 104/42/2 108/42/2
f 108/41/2 105/41/2 109/41/2
f 106/12/2 107/12/2 110/12/2
f 110/12/2 107/12/2 111/12/2
f 110/15/2 111/15/2 112/15/2
f 112/15/2 111/15/2 113/15/2
f 113/15/2 111/15/2 114/15/2
f 115/30/2 116/30/2 117/30/2
f 117/30/2 116/30/2 118/30/2
f 119/39/2 120/39/2 122/39/2
f 120/2/2 121/2/2 123/2/2
f 122/39/2 120/39/2 123/39/2
f 123/2/2 121/2/2 124/2/2
f 123/32/2 124/32/2 125/32/2
f 125/32/2 124/32/2 126/32/2
f 125/1/2 126/1/2 127/1/2
f 127/1/2 126/1/2 128/1/2
f 129/53/2 130/53/2 134/53/2
f 130/37/2 131/37/2 135/37/2
f 134/53/2 130/53/2 135/53/2
f 135/37/2 131/37/2 136/37/2
f 132/8/2 133/8/2 137/8/2
f 137/8/2 133/8/2 138/8/2
f 139/3/2 140/3/2 144/3/2
f 140/14/2 141/14/2 145/14/2
f 144/3/2 140/3/2 145/3/2
f 141/45/2 142/45/2 146/45/2
f 145/14/2 141/14/2 146/14/2
f 142/54/2 143/54/2 147/54/2
f 146/45/2 142/45/2 147/45/2
f 147/54/2 143/54/2 148/54/2
f 144/25/2 145/25/2 150/25/2
f 145/28/2 146/28/2 151/28/2
f 150/25/2 145/25/2 151/25/2
f 146/48/2 147/48/2 152/48/2
f 151/28/2 146/28/2 152/28/2
f 147/42/2 148/42/2 153/42/2
f 152/48/2 147/48/2 153/48/2
f 148/40/2 149/40/2 154/40/2
f 153/42/2 148/42/2 154/42/2
f 154/40/2 149/40/2 155/40/2
f 150/4/2 151/4/2 156/4/2
f 151/27/2 152/27/2 157/27/2
f 156/4/2 151/4/2 157/4/2
f 152/48/2 153/48/2 158/48/2
f 157/27/2 152/27/2 158/27/2
f 153/30/2 154/30/2 159/30/2
f 158/48/2 153/48/2 159/48/2
f 154/44/2 155/44/2 160/44/2
f 159/30/2 154/30/2 160/30/2
f 160/44/2 155/44/2 161/44/2
f 156/23/2 157/23/2 162/23/2
f 157/10/2 158/10/2 163/10/2
f 162/23/2 157/23/2 163/23/2
f 158/49/2 159/49/2 164/49/2
f 163/10/2 158/10/2 164/10/2
f 159/50/2 160/50/2 165/50/2
f 164/49/2 159/49/2 165/49/2
f 160/52/2 161/52/2 166/52/2
f 165/50/2 160/50/2 166/50/2
f 166/52/2 161/52/2 167/52/2
f 162/43/2 163/43/2 168/43/2
f 163/9/2 164/9/2 169/9/2
f 168/43/2 163/43/2 169/43/2
f 164/29/2 165/29/2 170/29/2
f 169/9/2 164/9/2 170/9/2
f 170/29/2 165/29/2 171/29/2
f 169/9/2 170/9/2 172/9/2
f 170/9/2 171/9/2 172/9/2
f 172/9/2 171/9/2 173/9/2
f 181/6/3 175/6/3 174/6/3
f 182/39/3 176/39/3 175/39/3
f 182/6/3 175/6/3 181/6/3
f 183/5/3 177/5/3 176/5/3
f 183/39/3 176/39/3 182/39/3
f 184/38/3 178/38/3 177/38/3
f 184/5/3 177/5/3 183/5/3
f 185/31/3 179/31/3 178/31/3
f 185/38/3 178/38/3 184/38/3
f 186/3/3 180/3/3 179/3/3
f 186/31/3 179/31/3 185/31/3
f 187/3/3 180/3/3 186/3/3
f 188/5/3 182/5/3 181/5/3
f 188/5/3 183/5/3 182/5/3
f 189/5/3 183/5/3 188/5/3
f 190/6/3 184/6/3 183/6/3
f 190/5/3 183/5/3 189/5/3
f 191/21/3 185/21/3 184/21/3
f 191/6/3 184/6/3 190/6/3
f 192/33/3 186/33/3 185/33/3
f 192/21/3 185/21/3 191/21/3
f 193/8/3 187/8/3 186/8/3
f 193/33/3 186/33/3 192/33/3
f 194/8/3 187/8/3 193/8/3
f 195/3/3 189/3/3 188/3/3
f 196/25/3 190/25/3 189/25/3
f 196/3/3 189/3/3 195/3/3
f 197/4/3 191/4/3 190/4/3
f 197/25/3 190/25/3 196/25/3
f 198/23/3 192/23/3 191/23/3
f 198/4/3 191/4/3 197/4/3
f 199/43/3 193/43/3 192/43/3
f 199/23/3 192/23/3 198/23/3
f 200/43/3 193/43/3 199/43/3
f 206/20/3 202/20/3 201/20/3
f 207/12/3 203/12/3 202/12/3
f 207/20/3 202/20/3 206/20/3
f 208/15/3 204/15/3 203/15/3
f 208/12/3 203/12/3 207/12/3
f 209/15/3 204/15/3 208/15/3
f 210/22/3 205/22/3 204/22/3
f 210/15/3 204/15/3 209/15/3
f 211/22/3 205/22/3 210/22/3
f 214/9/3 213/9/3 212/9/3
f 215/9/3 213/9/3 214/9/3
f 219/54/3 217/54/3 216/54/3
f 220/28/3 218/28/3 217/28/3
f 220/54/3 217/54/3 219/54/3
f 221/28/3 218/28/3 220/28/3
f 222/28/3 218/28/3 221/28/3
f 225/46/3 224/46/3 223/46/3
f 226/46/3 224/46/3 225/46/3
f 229/53/3 228/53/3 227/53/3
f 230/53/3 228/53/3 229/53/3
f 236/7/3 232/7/3 231/7/3
f 237/7/3 232/7/3 236/7/3
f 238/25/3 234/25/3 233/25/3
f 239/35/3 235/35/3 234/35/3
f 239/25/3 234/25/3 238/25/3
f 240/35/3 235/35/3 239/35/3
f 241/6/3 239/6/3 238/6/3
f 242/34/3 240/34/3 239/34/3
f 242/6/3 239/6/3 241/6/3
f 243/34/3 240/34/3 242/34/3
f 244/36/3 242/36/3 241/36/3
f 245/36/3 242/36/3 244/36/3
f 249/5/3 247/5/3 246/5/3
f 250/1/3 248/1/3 247/1/3
f 250/5/3 247/5/3 249/5/3
f 251/1/3 248/1/3 250/1/3
f 252/32/3 250/32/3 249/32/3
f 253/1/3 251/1/3 250/1/3
f 254/32/3 250/32/3 252/32/3
f 255/1/3 253/1/3 250/1/3
f 255/32/3 250/32/3 254/32/3
f 256/1/3 253/1/3 255/1/3
f 257/39/4 258/39/4 262/39/4
f 258/5/4 259/5/4 263/5/4
f 262/39/4 258/39/4 263/39/4
f 259/38/4 260/38/4 264/38/4
f 263/5/4 259/5/4 264/5/4
f 260/31/4 261/31/4 265/31/4
f 264/38/4 260/38/4 265/38/4
f 265/31/4 261/31/4 266/31/4
f 262/5/4 263/5/4 267/5/4
f 263/6/4 264/6/4 268/6/4
f 267/5/4 263/5/4 268/5/4
f 264/21/4 265/21/4 269/21/4
f 268/6/4 264/6/4 269/6/4
f 265/33/4 266/33/4 270/33/4
f 269/21/4 265/21/4 270/21/4
f 270/33/4 266/33/4 271/33/4
f 272/12/4 273/12/4 275/12/4
f 273/15/4 274/15/4 276/15/4
f 275/12/4 273/12/4 276/12/4
f 276/15/4 274/15/4 277/15/4
f 278/15/4 279/15/4 281/15/4
f 281/15/4 279/15/4 282/15/4
f 280/29/4 281/29/4 283/29/4
f 281/9/4 282/9/4 284/9/4
f 283/29/4 281/29/4 284/29/4
f 284/9/4 282/9/4 285/9/4
f 286/51/4 287/51/4 290/51/4
f 290/51/4 287/51/4 291/51/4
f 288/41/4 289/41/4 292/41/4
f 292/41/4 289/41/4 293/41/4
f 290/47/4 291/47/4 294/47/4
f 294/47/4 291/47/4 295/47/4
f 294/30/4 295/30/4 296/30/4
f 296/30/4 295/30/4 297/30/4
f 298/54/4 299/54/4 300/54/4
f 300/54/4 299/54/4 301/54/4
f 302/17/4 303/17/4 306/17/4
f 303/19/4 304/19/4 307/19/4
f 306/17/4 303/17/4 307/17/4
f 307/19/4 304/19/4 308/19/4
f 304/18/4 305/18/4 309/18/4
f 308/19/4 304/19/4 309/19/4
f 309/18/4 305/18/4 310/18/4
f 308/25/4 309/25/4 311/25/4
f 309/35/4 310/35/4 312/35/4
f 311/25/4 309/25/4 312/25/4
f 312/35/4 310/35/4 313/35/4
f 311/6/4 312/6/4 314/6/4
f 312/34/4 313/34/4 315/34/4
f 314/6/4 312/6/4 315/6/4
f 315/34/4 313/34/4 316/34/4
f 314/36/4 315/36/4 319/36/4
f 315/37/4 316/37/4 320/37/4
f 319/36/4 315/36/4 320/36/4
f 320/37/4 316/37/4 321/37/4
f 317/40/4 318/40/4 322/40/4
f 318/44/4 319/44/4 323/44/4
f 322/40/4 318/40/4 323/40/4
f 319/52/4 320/52/4 324/52/4
f 323/44/4 319/44/4 324/44/4
f 324/52/4 320/52/4 325/52/4
f 326/4/4 327/4/4 330/4/4
f 327/5/4 328/5/4 331/5/4
f 330/4/4 327/4/4 331/4/4
f 328/1/4 329/1/4 332/1/4
f 331/5/4 328/5/4 332/5/4
f 330/2/4 331/2/4 333/2/4
f 331/32/4 332/32/4 334/32/4
f 333/2/4 331/2/4 334/2/4
f 332/1/4 329/1/4 335/1/4
f 334/32/4 332/32/4 335/32/4
f 335/1/4 329/1/4 336/1/4
f 341/6/5 338/6/5 337/6/5
f 342/5/5 339/5/5 338/5/5
f 342/6/5 338/6/5 341/6/5
f 343/3/5 340/3/5 339/3/5
f 343/5/5 339/5/5 342/5/5
f 344/3/5 340/3/5 343/3/5
f 345/16/5 342/16/5 341/16/5
f 346/15/5 343/15/5 342/15/5
f 346/16/5 342/16/5 345/16/5
f 347/14/5 344/14/5 343/14/5
f 347/15/5 343/15/5 346/15/5
f 348/14/5 344/14/5 347/14/5
f 349/6/5 346/6/5 345/6/5
f 350/28/5 347/28/5 346/28/5
f 350/6/5 346/6/5 349/6/5
f 351/45/5 348/45/5 347/45/5
f 351/28/5 347/28/5 350/28/5
f 352/45/5 348/45/5 351/45/5
f 354/31/5 350/31/5 349/31/5
f 355/49/5 351/49/5 350/49/5
f 355/31/5 350/31/5 354/31/5
f 356/54/5 352/54/5 351/54/5
f 356/49/5 351/49/5 355/49/5
f 357/54/5 352/54/5 356/54/5
f 358/7/5 354/7/5 353/7/5
f 359/26/5 355/26/5 354/26/5
f 359/7/5 354/7/5 358/7/5
f 360/39/5 356/39/5 355/39/5
f 360/26/5 355/26/5 359/26/5
f 361/39/5 356/39/5 360/39/5
f 362/4/5 359/4/5 358/4/5
f 363/2/5 360/2/5 359/2/5
f 363/4/5 359/4/5 362/4/5
f 363/2/5 361/2/5 360/2/5
f 364/2/5 361/2/5 363/2/5
f 367/20/5 366/20/5 365/20/5
f 368/20/5 366/20/5 367/20/5
f 370/42/5 368/42/5 367/42/5
f 371/42/5 368/42/5 370/42/5
f 372/46/5 370/46/5 369/46/5
f 373/41/5 371/41/5 370/41/5
f 373/46/5 370/46/5 372/46/5
f 374/41/5 371/41/5 373/41/5
f 377/17/5 373/17/5 372/17/5
f 378/17/5 373/17/5 377/17/5
f 379/40/5 376/40/5 375/40/5
f 380/40/5 376/40/5 379/40/5
f 383/54/5 382/54/5 381/54/5
f 384/54/5 382/54/5 383/54/5
f 389/25/5 386/25/5 385/25/5
f 390/6/5 387/6/5 386/6/5
f 390/25/5 386/25/5 389/25/5
f 391/36/5 388/36/5 387/36/5
f 391/6/5 387/6/5 390/6/5
f 392/36/5 388/36/5 391/36/5
f 395/53/5 394/53/5 393/53/5
f 396/53/5 394/53/5 395/53/5
f 401/13/5 398/13/5 397/13/5
f 402/11/5 399/11/5 398/11/5
f 402/13/5 398/13/5 401/13/5
f 403/11/5 399/11/5 402/11/5
f 404/45/5 401/45/5 400/45/5
f 405/24/5 402/24/5 401/24/5
f 405/45/5 401/45/5 404/45/5
f 406/15/5 403/15/5 402/15/5
f 406/24/5 402/24/5 405/24/5
f 407/15/5 403/15/5 406/15/5
f 408/47/5 405/47/5 404/47/5
f 409/30/5 406/30/5 405/30/5
f 409/47/5 405/47/5 408/47/5
f 410/30/5 406/30/5 409/30/5
f 411/16/6 412/16/6 414/16/6
f 412/15/6 413/15/6 415/15/6
f 414/16/6 412/16/6 415/16/6
f 415/15/6 413/15/6 416/15/6
f 414/6/6 415/6/6 417/6/6
f 415/28/6 416/28/6 418/28/6
f 417/6/6 415/6/6 418/6/6
f 418/28/6 416/28/6 419/28/6
f 417/31/6 418/31/6 421/31/6
f 418/49/6 419/49/6 422/49/6
f 421/31/6 418/31/6 422/31/6
f 422/49/6 419/49/6 423/49/6
f 420/7/6 421/7/6 424/7/6
f 421/26/6 422/26/6 425/26/6
f 424/7/6 421/7/6 425/7/6
f 422/39/6 423/39/6 426/39/6
f 425/26/6 422/26/6 426/26/6
f 426/39/6 423/39/6 427/39/6
f 428/42/6 429/42/6 430/42/6
f 430/42/6 429/42/6 431/42/6
f 430/41/6 431/41/6 432/41/6
f 432/41/6 431/41/6 433/41/6
f 434/1/6 435/1/6 438/1/6
f 436/1/6 437/1/6 438/1/6
f 435/1/6 436/1/6 438/1/6
f 438/1/6 437/1/6 439/1/6
f 440/50/6 441/50/6 442/50/6
f 442/50/6 441/50/6 443/50/6
f 442/52/6 443/52/6 444/52/6
f 444/52/6 443/52/6 445/52/6
f 446/43/6 447/43/6 448/43/6
f 448/43/6 447/43/6 449/43/6
f 450/53/6 451/53/6 455/53/6
f 455/53/6 451/53/6 456/53/6
f 452/18/6 453/18/6 457/18/6
f 453/35/6 454/35/6 458/35/6
f 457/18/6 453/18/6 458/18/6
f 454/34/6 455/34/6 459/34/6
f 458/35/6 454/35/6 459/35/6
f 455/37/6 456/37/6 460/37/6
f 459/34/6 455/34/6 460/34/6
f 460/37/6 456/37/6 461/37/6
f 462/3/6 463/3/6 466/3/6
f 463/8/6 464/8/6 467/8/6
f 466/3/6 463/3/6 467/3/6
f 467/8/6 464/8/6 468/8/6
f 465/22/6 466/22/6 471/22/6
f 466/13/6 467/13/6 472/13/6
f 471/22/6 466/22/6 472/22/6
f 467/11/6 468/11/6 473/11/6
f 472/13/6 467/13/6 473/13/6
f 468/9/6 469/9/6 474/9/6
f 473/11/6 468/11/6 474/11/6
f 470/28/6 471/28/6 475/28/6
f 471/45/6 472/45/6 476/45/6
f 475/28/6 471/28/6 476/28/6
f 472/24/6 473/24/6 477/24/6
f 476/45/6 472/45/6 477/45/6
f 473/15/6 474/15/6 478/15/6
f 477/24/6 473/24/6 478/24/6
f 474/9/6 469/9/6 479/9/6
f 478/15/6 474/15/6 479/15/6
f 479/9/6 469/9/6 480/9/6
f 475/51/6 476/51/6 481/51/6
f 476/47/6 477/47/6 482/47/6
f 481/51/6 476/51/6 482/51/6
f 477/30/6 478/30/6 483/30/6
f 482/47/6 477/47/6 483/47/6
f 483/30/6 478/30/6 484/30/6
